<svg xmlns="http://www.w3.org/2000/svg" version="1.1" xmlns:xlink="http://www.w3.org/1999/xlink" xmlns:svgjs="http://svgjs.dev/svgjs" width="1000" height="750" viewBox="0 0 1000 750"><rect width="1000" height="750" fill="#ff0000"></rect><g transform="matrix(0.834,0,0,0.834,82.49454545454546,115.4193570850203)"><svg viewBox="0 0 396 247" data-background-color="#ff0000" preserveAspectRatio="xMidYMid meet" height="623" width="1000" xmlns="http://www.w3.org/2000/svg" xmlns:xlink="http://www.w3.org/1999/xlink"><g id="tight-bounds" transform="matrix(1,0,0,1,0.2400000000000091,-0.09999999999999432)"><svg viewBox="0 0 395.52 247.2" height="247.2" width="395.52"><g><svg></svg></g><g><svg viewBox="0 0 395.52 247.2" height="247.2" width="395.52"><g transform="matrix(1,0,0,1,140.12204081632652,37.08)"><svg viewBox="0 0 115.27591836734693 173.04" height="173.04" width="115.27591836734693"><g><svg viewBox="0 0 115.27591836734693 173.04" height="173.04" width="115.27591836734693"><g><svg viewBox="0 0 115.27591836734693 173.04" height="173.04" width="115.27591836734693"><g><svg viewBox="0 0 115.27591836734693 173.04" height="173.04" width="115.27591836734693"><g id="textblocktransform"><svg viewBox="0 0 115.27591836734693 173.04" height="173.04" width="115.27591836734693" id="textblock"><g><svg viewBox="0 0 115.27591836734693 173.04" height="173.04" width="115.27591836734693"><g transform="matrix(1,0,0,1,0,0)"><svg width="115.27591836734693" viewBox="4.599999904632568 -34.29999923706055 22.850000381469727 34.29999923706055" height="173.04" data-palette-color="#ffffff"><path d="M4.6-34.3L27.1-34.3 26.45-29.85 9.5-29.85 9.5-19.75 24.85-19.75 24.85-15.3 9.5-15.3 9.5-4.45 26.75-4.45 27.45 0 4.6 0 4.6-34.3Z" opacity="1" transform="matrix(1,0,0,1,0,0)" fill="#ffffff" class="undefined-text-0" data-fill-palette-color="primary" id="text-0"></path></svg></g></svg></g></svg></g></svg></g></svg></g></svg></g></svg></g><g mask="url(#5afd53d6-93c8-49b2-be2e-aaf472080b60)"><g transform="matrix(4.492237129926489, 0, 0, 4.492237129926489, 1, 58.01334475768313)"><svg xmlns="http://www.w3.org/2000/svg" xmlns:xlink="http://www.w3.org/1999/xlink" version="1.1" x="0" y="0" viewBox="6.199999809265137 35.400001525878906 87.60000610351562 29.199996948242188" enable-background="new 0 0 100 100" xml:space="preserve" height="29.199996948242188" width="87.60000610351562" class="icon-none" data-fill-palette-color="accent" id="none"><polygon points="26.2,35.4 6.2,47.9 6.2,52.1 26.2,64.6 28.8,60.4 12.2,50 28.8,39.6 " fill="#ffffff" data-fill-palette-color="accent"></polygon><polygon points="73.8,35.4 71.2,39.6 87.8,50 71.2,60.4 73.8,64.6 93.8,52.1 93.8,47.9 " fill="#ffffff" data-fill-palette-color="accent"></polygon><circle cx="50" cy="50" r="5.0" fill="#ffffff" data-fill-palette-color="accent"></circle><circle cx="65" cy="50" r="5.0" fill="#ffffff" data-fill-palette-color="accent"></circle><circle cx="35" cy="50" r="5.0" fill="#ffffff" data-fill-palette-color="accent"></circle></svg></g></g></svg></g><defs><mask id="5afd53d6-93c8-49b2-be2e-aaf472080b60"><rect width="640" height="400" fill="white"></rect><rect width="126.80351020408163" height="254.74118208" fill="black" y="-3.7705910399999993" x="134.35824489795917" id="transform-me"></rect></mask></defs></svg><rect width="395.52" height="247.2" fill="none" stroke="none" visibility="hidden"></rect></g></svg></g></svg>