<svg xmlns="http://www.w3.org/2000/svg" version="1.1" xmlns:xlink="http://www.w3.org/1999/xlink" xmlns:svgjs="http://svgjs.dev/svgjs" width="1000" height="1000" viewBox="0 0 1000 1000"><g transform="matrix(1,0,0,1,-0.14221556886212738,-0.14221556886229791)"><svg viewBox="0 0 334 334" data-background-color="#ffffff" preserveAspectRatio="xMidYMid meet" height="1000" width="1000" xmlns="http://www.w3.org/2000/svg" xmlns:xlink="http://www.w3.org/1999/xlink"><g id="tight-bounds" transform="matrix(1,0,0,1,0.04749999999998522,0.04750000000001364)"><svg viewBox="0 0 333.90454557049503 333.90454557049503" height="333.90454557049503" width="333.90454557049503"><g><svg></svg></g><g><svg viewBox="0 0 333.90454557049503 333.90454557049503" height="333.90454557049503" width="333.90454557049503"><g><path d="M0 166.952c0-92.205 74.747-166.952 166.952-166.952 92.205 0 166.952 74.747 166.953 166.952 0 92.205-74.747 166.952-166.953 166.953-92.205 0-166.952-74.747-166.952-166.953zM166.952 328.93c89.458 0 161.977-72.52 161.978-161.978 0-89.458-72.52-161.977-161.978-161.977-89.458 0-161.977 72.52-161.977 161.977 0 89.458 72.52 161.977 161.977 161.978z" data-fill-palette-color="tertiary" fill="#d12020" stroke="transparent"></path><ellipse rx="160.27418187383762" ry="160.27418187383762" cx="166.95227278524752" cy="166.95227278524752" fill="#d12020" stroke="transparent" stroke-width="0" fill-opacity="1" data-fill-palette-color="tertiary"></ellipse></g><g transform="matrix(1,0,0,1,91.09340541197864,71.17305217166896)"><svg viewBox="0 0 151.71773474653776 191.55844122715712" height="191.55844122715712" width="151.71773474653776"><g><svg viewBox="0 0 151.71773474653776 191.55844122715712" height="191.55844122715712" width="151.71773474653776"><g><svg viewBox="0 0 213.1584412271571 269.13332712289656" height="191.55844122715712" width="151.71773474653776"><g transform="matrix(1,0,0,1,0,150.02889465799174)"><svg viewBox="0 0 213.1584412271571 119.10443246490483" height="119.10443246490483" width="213.1584412271571"><g id="textblocktransform"><svg viewBox="0 0 213.1584412271571 119.10443246490483" height="119.10443246490483" width="213.1584412271571" id="textblock"><g><svg viewBox="0 0 213.1584412271571 77.5046085989624" height="77.5046085989624" width="213.1584412271571"><g transform="matrix(1,0,0,1,0,0)"><svg width="213.1584412271571" viewBox="2.4000000953674316 -36.5 128.29000854492188 46.650001525878906" height="77.5046085989624" data-palette-color="#ffffff"><path d="M25.95 0L12.25 0Q9.35 0 7.13-1.38 4.9-2.75 3.65-5 2.4-7.25 2.4-9.9L2.4-9.9Q2.4-12.3 3.53-14.4 4.65-16.5 6.8-17.7L6.8-17.7Q4.7-19.05 3.6-21.05 2.5-23.05 2.5-25.25L2.5-25.25Q2.5-27.95 3.78-30.15 5.05-32.35 7.25-33.68 9.45-35 12.1-35L12.1-35 25.95-35 25.95-30.75 12.65-30.75Q11.1-30.75 9.9-30 8.7-29.25 8-28.03 7.3-26.8 7.3-25.25L7.3-25.25Q7.3-23.8 8.03-22.6 8.75-21.4 10-20.68 11.25-19.95 12.75-19.95L12.75-19.95 24.1-19.95 24.1-15.7 13.1-15.7Q11.25-15.7 9.93-14.88 8.6-14.05 7.88-12.73 7.15-11.4 7.15-9.9L7.15-9.9Q7.15-8.4 7.85-7.1 8.55-5.8 9.85-5.03 11.15-4.25 12.9-4.25L12.9-4.25 25.95-4.25 25.95 0ZM36.4 0L31.8 0 31.8-36.5 36.4-36.5 36.4 0ZM60.9 10.15L47.55 10.15 47.55 6.2 60.05 6.2Q61.9 6.2 62.92 5.1 63.95 4 63.95 2.2L63.95 2.2 63.95-4.8 63.84-4.8Q62.9-3.35 61.55-2.2 60.2-1.05 58.45-0.38 56.7 0.3 54.5 0.3L54.5 0.3Q50.9 0.3 48.15-1.38 45.4-3.05 43.84-6.03 42.3-9 42.3-12.85L42.3-12.85Q42.3-16.6 43.84-19.6 45.4-22.6 48.32-24.35 51.25-26.1 55.4-26.1L55.4-26.1Q59.4-26.1 62.34-24.4 65.3-22.7 66.92-19.68 68.55-16.65 68.55-12.6L68.55-12.6 68.55 2.5Q68.55 6 66.5 8.08 64.45 10.15 60.9 10.15L60.9 10.15ZM55.34-3.65L55.34-3.65Q57.9-3.65 59.82-4.85 61.75-6.05 62.82-8.13 63.9-10.2 63.9-12.8L63.9-12.8Q63.9-15.45 62.84-17.55 61.8-19.65 59.9-20.88 58-22.1 55.34-22.1L55.34-22.1Q52.75-22.1 50.87-20.88 49-19.65 47.97-17.53 46.95-15.4 46.95-12.75L46.95-12.75Q46.95-10.25 47.97-8.18 49-6.1 50.87-4.88 52.75-3.65 55.34-3.65ZM87.64 0.6L87.64 0.6Q84.19 0.6 81.47-0.83 78.74-2.25 77.22-4.8 75.69-7.35 75.69-10.75L75.69-10.75 75.69-25.5 80.34-25.5 80.34-10.8Q80.34-8.5 81.34-6.83 82.34-5.15 84.02-4.25 85.69-3.35 87.59-3.35L87.59-3.35Q89.54-3.35 91.22-4.25 92.89-5.15 93.92-6.83 94.94-8.5 94.94-10.8L94.94-10.8 94.94-25.5 99.59-25.5 99.59-10.75Q99.59-7.35 98.04-4.8 96.49-2.25 93.79-0.83 91.09 0.6 87.64 0.6ZM111.49 0L106.89 0 106.89-14.75Q106.89-18.15 108.42-20.7 109.94-23.25 112.64-24.68 115.34-26.1 118.79-26.1L118.79-26.1Q122.29-26.1 124.97-24.68 127.64-23.25 129.17-20.7 130.69-18.15 130.69-14.75L130.69-14.75 130.69 0 126.09 0 126.09-14.7Q126.09-17 125.07-18.68 124.04-20.35 122.37-21.25 120.69-22.15 118.79-22.15L118.79-22.15Q116.89-22.15 115.22-21.25 113.54-20.35 112.52-18.68 111.49-17 111.49-14.7L111.49-14.7 111.49 0Z" opacity="1" transform="matrix(1,0,0,1,0,0)" fill="#ffffff" class="undefined-text-0" data-fill-palette-color="quaternary" id="text-0"></path></svg></g></svg></g><g transform="matrix(1,0,0,1,0,95.80158657857106)"><svg viewBox="0 0 213.1584412271571 23.302845886333778" height="23.302845886333778" width="213.1584412271571"><g transform="matrix(1,0,0,1,0,0)"><svg width="213.1584412271571" viewBox="1.5 -28.799999237060547 263.8800048828125 28.849998474121094" height="23.302845886333778" data-palette-color="#ffffff"><path d="M17.5-19.05L17.5-9.7 7.15 0 1.5-1.8 14.7-14.35 1.5-26.9 7.15-28.75 17.5-19.05ZM35.95-26.9L22.55-14.35 35.95-1.8 30.1 0 19.75-9.7 19.75-19.05 30.1-28.75 35.95-26.9ZM69.75-18.55L69.75-12.85 63.85-9.4 55.85-9.4 55.85-13.25 63.4-13.25 63.4-17.35 55.85-17.35 55.85-22.05 63.85-22.05 69.75-18.55ZM63.2-6.95L69.75-6.95 69.75-3.45 63.85 0 55.85 0 55.85-5.3 63.2-5.3 63.2-6.95ZM39.55-18.55L39.55-3.45 45.45 0 53.4 0 53.4-5.3 45.85-5.3 45.85-9.4 53.4-9.4 53.4-13.25 45.85-13.25 45.85-17.35 53.4-17.35 53.4-22.05 45.45-22.05 39.55-18.55ZM78.75 0.05L78.75-28.75 85.15-28.75 85.15 0.05 78.75 0.05ZM94.14-22L100.44-22 100.44 0.05 94.14 0.05 94.14-22ZM100.34-28.7L100.34-24.05 94.14-24.05 94.14-28.7 100.34-28.7ZM109.44 0.05L109.44-28.75 115.84-28.75 115.84 0.05 109.44 0.05ZM138.49-22.05L152.39-22.05 138.49-8.75 138.49-16.3 139.74-17.45 138.49-17.45 138.49-22.05ZM136.29-5.1L136.29 0 122.34 0 136.29-13.9 136.29-6.35 134.99-5.1 136.29-5.1ZM122.34-22.05L136.29-22.05 136.29-17.45 122.34-17.45 122.34-22.05ZM138.49-5.3L152.39-5.3 152.39 0 138.49 0 138.49-5.3ZM157.89-3.4L157.89-9.75 163.59-13.2 171.79-13.2 171.79-9.35 164.24-9.35 164.24-5.25 171.79-5.25 171.79 0.05 163.59 0.05 157.89-3.4ZM164.24-15.05L157.89-15.05 157.89-18.5 163.59-22 171.79-22 171.79-17.3 164.24-17.3 164.24-15.05ZM187.89 0.05L187.89-18.5 182.19-22 173.99-22 173.99-17.3 181.54-17.3 181.54-13.2 173.99-13.2 173.99-9.35 181.54-9.35 181.54-5.25 174.19-5.25 174.19 0.05 187.89 0.05ZM226.18-28.8L226.18 0 212.58 0 212.58-5.25 219.88-5.25 219.88-17.25 212.38-17.25 212.38-21.9 219.88-21.9 219.88-28.8 226.18-28.8ZM196.38-3.45L196.38-18.45 202.08-21.9 210.18-21.9 210.18-17.25 202.48-17.25 202.48-5.25 209.98-5.25 209.98 0 202.08 0 196.38-3.45ZM265.38-18.55L265.38-12.85 259.48-9.4 251.48-9.4 251.48-13.25 259.03-13.25 259.03-17.35 251.48-17.35 251.48-22.05 259.48-22.05 265.38-18.55ZM258.83-6.95L265.38-6.95 265.38-3.45 259.48 0 251.48 0 251.48-5.3 258.83-5.3 258.83-6.95ZM235.18-18.55L235.18-3.45 241.08 0 249.03 0 249.03-5.3 241.48-5.3 241.48-9.4 249.03-9.4 249.03-13.25 241.48-13.25 241.48-17.35 249.03-17.35 249.03-22.05 241.08-22.05 235.18-18.55Z" opacity="1" transform="matrix(1,0,0,1,0,0)" fill="#ffffff" class="undefined-text-1" data-fill-palette-color="quaternary" id="text-1"></path></svg></g></svg></g></svg></g></svg></g><g transform="matrix(1,0,0,1,40.713262274387006,0)"><svg viewBox="0 0 131.7319166783831 131.7319166783831" height="131.7319166783831" width="131.7319166783831"><g><svg xmlns="http://www.w3.org/2000/svg" xmlns:xlink="http://www.w3.org/1999/xlink" version="1.1" x="0" y="0" viewBox="1 1 62 62" style="enable-background:new 0 0 64 64;" xml:space="preserve" height="131.7319166783831" width="131.7319166783831" class="icon-icon-0" data-fill-palette-color="quaternary" id="icon-0"><g fill="#ffffff" data-fill-palette-color="quaternary"><path d="M58 5H6C5.447 5 5 5.448 5 6v28c0 0.553 0.447 1 1 1h52c0.553 0 1-0.447 1-1V6C59 5.448 58.553 5 58 5zM49 17H15v-6h34V17zM15 19h34v14H15V19zM57 33h-6V10c0-0.552-0.447-1-1-1H14c-0.553 0-1 0.448-1 1v23H7V7h50V33z" fill="#ffffff" data-fill-palette-color="quaternary"></path><path d="M60 39c1.654 0 3-1.346 3-3V4c0-1.654-1.346-3-3-3H4C2.346 1 1 2.346 1 4v32c0 1.654 1.346 3 3 3h24v2h-4c-2.757 0-5 2.243-5 5 0 0.553 0.447 1 1 1h24c0.553 0 1-0.447 1-1 0-2.757-2.243-5-5-5h-4v-2h17v1c0 1.654 1.346 3 3 3h4c0.552 0 1 0.448 1 1s-0.448 1-1 1H50c-1.654 0-3 1.346-3 3v1H6c-0.553 0-1 0.447-1 1v12c0 0.553 0.447 1 1 1h52c0.553 0 1-0.447 1-1V50c0-0.553-0.447-1-1-1h-9v-1c0-0.552 0.448-1 1-1h10c1.654 0 3-1.346 3-3s-1.346-3-3-3h-4c-0.552 0-1-0.448-1-1v-1H60zM57 61H7V51h50V61zM3 36V4c0-0.551 0.448-1 1-1h56c0.552 0 1 0.449 1 1v32c0 0.552-0.448 1-1 1H4C3.448 37 3 36.552 3 36zM42.829 45H21.171c0.413-1.164 1.525-2 2.829-2h16C41.304 43 42.416 43.836 42.829 45zM34 41h-4v-2h4V41z" fill="#ffffff" data-fill-palette-color="quaternary"></path><rect x="53" y="53" width="2" height="2" fill="#ffffff" data-fill-palette-color="quaternary"></rect><rect x="53" y="57" width="2" height="2" fill="#ffffff" data-fill-palette-color="quaternary"></rect><rect x="49" y="53" width="2" height="2" fill="#ffffff" data-fill-palette-color="quaternary"></rect><rect x="49" y="57" width="2" height="2" fill="#ffffff" data-fill-palette-color="quaternary"></rect><rect x="45" y="53" width="2" height="2" fill="#ffffff" data-fill-palette-color="quaternary"></rect><rect x="45" y="57" width="2" height="2" fill="#ffffff" data-fill-palette-color="quaternary"></rect><rect x="17" y="53" width="2" height="2" fill="#ffffff" data-fill-palette-color="quaternary"></rect><rect x="17" y="57" width="14" height="2" fill="#ffffff" data-fill-palette-color="quaternary"></rect><rect x="13" y="53" width="2" height="2" fill="#ffffff" data-fill-palette-color="quaternary"></rect><rect x="13" y="57" width="2" height="2" fill="#ffffff" data-fill-palette-color="quaternary"></rect><rect x="9" y="53" width="2" height="2" fill="#ffffff" data-fill-palette-color="quaternary"></rect><rect x="9" y="57" width="2" height="2" fill="#ffffff" data-fill-palette-color="quaternary"></rect><rect x="29" y="53" width="2" height="2" fill="#ffffff" data-fill-palette-color="quaternary"></rect><rect x="25" y="53" width="2" height="2" fill="#ffffff" data-fill-palette-color="quaternary"></rect><rect x="37" y="53" width="2" height="2" fill="#ffffff" data-fill-palette-color="quaternary"></rect><rect x="37" y="57" width="2" height="2" fill="#ffffff" data-fill-palette-color="quaternary"></rect><rect x="33" y="53" width="2" height="2" fill="#ffffff" data-fill-palette-color="quaternary"></rect><rect x="33" y="57" width="2" height="2" fill="#ffffff" data-fill-palette-color="quaternary"></rect><rect x="21" y="53" width="2" height="2" fill="#ffffff" data-fill-palette-color="quaternary"></rect><rect x="17" y="13" width="2" height="2" fill="#ffffff" data-fill-palette-color="quaternary"></rect><rect x="21" y="13" width="2" height="2" fill="#ffffff" data-fill-palette-color="quaternary"></rect><rect x="25" y="13" width="2" height="2" fill="#ffffff" data-fill-palette-color="quaternary"></rect><rect x="29" y="13" width="18" height="2" fill="#ffffff" data-fill-palette-color="quaternary"></rect><path d="M21.293 21.293l-4 4c-0.391 0.391-0.391 1.023 0 1.414l4 4 1.414-1.414L19.414 26l3.293-3.293L21.293 21.293z" fill="#ffffff" data-fill-palette-color="quaternary"></path><path d="M34.707 25.293l-4-4-1.414 1.414L32.586 26l-3.293 3.293 1.414 1.414 4-4C35.098 26.316 35.098 25.684 34.707 25.293z" fill="#ffffff" data-fill-palette-color="quaternary"></path><rect x="20.615" y="25" transform="matrix(0.3715 -0.9284 0.9284 0.3715 -7.7979 40.4812)" width="10.77" height="2.001" fill="#ffffff" data-fill-palette-color="quaternary"></rect><rect x="37" y="21" width="2" height="2" fill="#ffffff" data-fill-palette-color="quaternary"></rect><rect x="41" y="21" width="4" height="2" fill="#ffffff" data-fill-palette-color="quaternary"></rect><rect x="37" y="25" width="4" height="2" fill="#ffffff" data-fill-palette-color="quaternary"></rect><rect x="43" y="25" width="2" height="2" fill="#ffffff" data-fill-palette-color="quaternary"></rect><rect x="45" y="29" width="2" height="2" fill="#ffffff" data-fill-palette-color="quaternary"></rect><rect x="41" y="29" width="2" height="2" fill="#ffffff" data-fill-palette-color="quaternary"></rect><rect x="35" y="29" width="4" height="2" fill="#ffffff" data-fill-palette-color="quaternary"></rect></g></svg></g></svg></g><g></g></svg></g></svg></g></svg></g></svg></g><defs></defs></svg><rect width="333.90454557049503" height="333.90454557049503" fill="none" stroke="none" visibility="hidden"></rect></g></svg></g></svg>